<svg width="48" height="48" viewBox="0 0 48 48" fill="none" xmlns="http://www.w3.org/2000/svg">
<rect width="48" height="48" fill="black"/>
<path d="M16.6089 13H22.3911L31 36H25.4749L23.7081 30.8603H15.2919L13.5251 36H8L16.6089 13ZM22.102 26.2989L20.4316 21.4804L19.6606 18.6536H19.3394L18.5684 21.4804L16.898 26.2989H22.102Z" fill="white"/>
<path d="M37 36C36.1667 36 35.4583 35.7083 34.875 35.125C34.2917 34.5417 34 33.8333 34 33C34 32.1667 34.2917 31.4583 34.875 30.875C35.4583 30.2917 36.1667 30 37 30C37.8333 30 38.5417 30.2917 39.125 30.875C39.7083 31.4583 40 32.1667 40 33C40 33.8333 39.7083 34.5417 39.125 35.125C38.5417 35.7083 37.8333 36 37 36Z" fill="white"/>
</svg>
